# xmcd
#
# Track frame offsets: 
#        150
#        19007
#        47986
#        70340
#        95258
#        118866
#        137361
#        165546
#        185170
#        219032
#        232149
#        257176
#        279133
#        289534
#        304999
#        323181
#
# Disc length: 4432 seconds
#
# Revision: 1
# Processed by: cddbd v1.5.2PL0 Copyright (c) Steve Scherf et al.
# Submitted via: ExactAudioCopy v0.99pb5
#
DISCID=e7114e10
DTITLE=Howlin' Wolf - Live in Europe - Bremen, Germany November 6, 196
DTITLE=4
DYEAR=2006
DGENRE=Blues
TTITLE0=Shake for Me
TTITLE1=Love Me Darlin'
TTITLE2=(I Believe) I'll Dust My Broom
TTITLE3=I Didn't Mean to Hurt Your Feelings
TTITLE4=Rockin' the Blues
TTITLE5=All My Life
TTITLE6=Going Down Slow
TTITLE7=Howlin' for My Baby
TTITLE8=Forty-Four
TTITLE9=Highway 49
TTITLE10=Little Red Rooster
TTITLE11=Wang Dang Doodle
TTITLE12=Built for Comfort
TTITLE13=Killing Floor
TTITLE14=Poor Boy
TTITLE15=Smile at me
EXTD=
EXTT0=
EXTT1=
EXTT2=
EXTT3=
EXTT4=
EXTT5=
EXTT6=
EXTT7=
EXTT8=
EXTT9=
EXTT10=
EXTT11=
EXTT12=
EXTT13=
EXTT14=
EXTT15=
PLAYORDER=
